<svg id="Layer_1" data-name="Layer 1" xmlns="http://www.w3.org/2000/svg" viewBox="0 0 150 38"><defs><style>.cls-1{fill:#ff635f;}.cls-2{fill:#ea4335;}.cls-3{fill:#4384f2;}.cls-4{fill:#8eb9fd;}.cls-5{fill:#2b9e44;}.cls-6{fill:#46cc5f;}.cls-7{fill:#ffd766;}.cls-8{fill:#f0c21f;}</style></defs><path class="cls-1" d="M32.14589,13.71825a12.57889,12.57889,0,0,1-3.69217,8.91691,12.71677,12.71677,0,0,1-3.309,2.37806L1,1.10916H19.53682A12.60986,12.60986,0,0,1,32.14589,13.71825Z"/><polygon class="cls-2" points="37.139 36.891 1 36.891 1 1.109 25.145 25.013 37.139 36.891"/><polygon class="cls-3" points="128.905 1.109 128.905 16.996 112.861 1.109 128.905 1.109"/><polygon class="cls-3" points="149 1.109 149 36.891 147.927 35.827 139.086 27.075 132.955 21.004 132.955 1.109 149 1.109"/><polygon class="cls-4" points="133.044 36.891 133.044 27.075 128.905 27.075 128.905 36.891 112.861 36.891 112.861 1.109 128.905 16.996 132.955 21.004 139.086 27.075 147.927 35.827 149 36.891 133.044 36.891"/><path class="cls-5" d="M109.81312,1.10916,98.39463,12.41364,82.33722,28.31273a15.83088,15.83088,0,0,1,11.01-27.20357Z"/><path class="cls-6" d="M105.33883,23.90811A12.98269,12.98269,0,0,1,92.35609,36.89084H73.67362l8.6636-8.57811L98.39463,12.41364a12.99549,12.99549,0,0,1,6.9442,11.49447Z"/><path class="cls-7" d="M69.13082,8.11984l-6.95049,6.884-2.52054,2.492-3.00186,2.9702-7.82762,7.75481L40.0717,36.89084V1.10916H59.65979A9.912,9.912,0,0,1,69.13082,8.11984Z"/><path class="cls-8" d="M70.74261,25.80168A11.091,11.091,0,0,1,59.65979,36.89084H40.0717l8.75861-8.66993,7.82762-7.75481,3.00186-2.9702,2.52054-2.492,6.95049-6.884a9.96445,9.96445,0,0,1,.43069,2.90052,9.8419,9.8419,0,0,1-2.47942,6.55154A11.05586,11.05586,0,0,1,70.74261,25.80168Z"/></svg>